<svg xmlns="http://www.w3.org/2000/svg" width="150" height="50" viewBox="0,0,150,50"><rect width="100%" height="100%" fill="#fff"/><path fill="#84ebeb" d="M83.85 35.63L83.92 35.70L83.87 35.66Q84.84 36.42 86.10 36.28L86.04 36.23L86.15 36.34Q88.75 36.49 89.33 33.50L89.27 33.44L89.32 33.50Q89.92 30.72 89.92 27.70L89.82 27.60L89.81 25.28L89.90 25.37Q89.92 24.27 89.62 23.15L89.61 23.14L89.54 23.07Q88.52 25.22 86.76 29.47L86.65 29.36L86.69 29.40Q84.96 33.68 83.87 35.65ZM88.30 20.88L88.30 20.88L88.26 20.84Q87.36 20.24 86.17 20.24L86.07 20.14L86.11 20.18Q84.81 20.08 83.82 20.89L83.86 20.92L83.80 20.86Q82.81 21.67 82.64 23.00L82.61 22.97L82.58 22.94Q82.34 24.23 82.30 25.55L82.26 25.51L82.24 25.50Q82.39 25.64 82.39 28.19L82.35 28.15L82.42 28.23Q82.38 30.29 82.78 33.51L82.64 33.37L82.68 33.41Q84.51 29.30 88.42 21.00ZM89.81 37.78L89.77 37.75L89.68 37.66Q88.20 38.56 86.13 38.56L86.01 38.44L84.68 38.57L84.67 38.57Q81.76 38.54 80.74 37.01L80.67 36.95L80.74 37.01Q80.00 35.05 79.94 32.43L79.97 32.46L79.93 32.42Q80.00 30.97 79.93 27.88L79.77 27.71L79.84 27.78Q79.81 26.70 79.68 23.98L79.69 24.00L79.75 24.06Q79.55 21.89 79.83 20.12L79.81 20.11L79.95 20.25Q80.30 17.53 84.17 17.33L84.22 17.37L84.10 17.26Q84.81 17.26 86.00 17.29L86.09 17.38L86.05 17.34Q91.12 17.48 92.07 20.57L92.01 20.51L92.07 20.57Q92.54 22.19 92.50 23.86L92.55 23.91L92.54 23.90Q92.43 28.31 92.36 29.39L92.55 29.58L92.36 29.40Q92.32 32.92 92.05 34.08L92.01 34.04L91.92 33.95Q91.53 36.92 89.83 37.81ZM94.07 37.42L94.14 37.49L94.13 37.49Q94.29 34.95 94.25 33.36L94.42 33.53L94.16 29.22L94.23 29.29Q94.09 26.53 93.61 21.60L93.72 21.71L93.67 21.66Q93.31 20.15 92.16 19.47L91.98 19.29L92.14 19.45Q90.66 17.08 86.03 16.95L86.08 16.99L85.99 16.91Q85.24 16.90 84.05 16.94L84.04 16.93L84.08 16.97Q80.11 17.11 79.67 19.90L79.70 19.92L79.61 19.84Q79.29 21.93 79.40 23.80L79.35 23.76L79.39 23.80Q79.74 27.76 79.71 30.75L79.59 30.63L79.61 30.65Q79.61 33.98 79.71 34.90L79.66 34.85L79.66 34.84Q80.11 37.70 81.47 38.42L81.31 38.26L81.34 38.29Q82.75 40.34 86.32 40.58L86.29 40.56L86.36 40.63Q89.43 40.71 90.01 40.67L90.01 40.67L90.14 40.80Q92.66 40.64 93.68 39.21L93.70 39.23L93.56 39.09Q94.07 38.55 94.14 37.49ZM86.51 36.02L86.39 35.89L86.47 35.97Q87.18 34.78 88.13 32.37L88.06 32.30L89.49 28.43L89.63 28.57Q89.53 29.96 89.19 32.95L89.23 32.99L89.22 32.99Q88.62 35.54 86.48 35.98ZM84.63 24.92L84.80 25.10L84.71 25.00Q85.14 23.43 85.75 22.92L85.76 22.93L85.66 22.83Q86.22 22.61 87.38 22.44L87.33 22.39L87.29 22.35Q85.86 25.71 84.19 29.86L84.03 29.69L84.02 29.69Q84.08 27.33 84.69 24.98Z"/><path fill="#ec8cbc" d="M56.81 38.66L56.76 38.60L54.48 32.35L54.51 32.38Q50.59 21.11 45.28 15.40L45.46 15.57L45.31 15.42Q47.12 16.38 49.43 16.93L49.55 17.05L49.50 17.00Q53.99 22.50 57.86 33.89L57.95 33.99L57.98 34.01Q60.65 26.72 61.26 25.30L61.24 25.27L61.31 25.34Q63.39 20.28 65.91 17.33L65.95 17.37L65.93 17.35Q67.70 16.95 70.05 16.17L70.18 16.30L70.06 16.18Q66.06 20.38 63.35 26.83L63.29 26.78L63.35 26.84Q62.06 30.07 58.76 38.57L58.82 38.62L58.83 38.64Q58.23 38.55 57.72 38.51L57.69 38.48L57.83 38.62Q57.31 38.61 56.80 38.64ZM61.26 40.79L61.11 40.64L61.30 40.84Q63.64 31.75 65.03 28.15L65.08 28.19L65.17 28.28Q67.72 21.29 71.67 16.94L71.76 17.03L71.67 16.94Q70.81 17.34 68.94 17.98L68.83 17.88L70.04 16.87L69.92 16.76Q70.38 16.09 70.93 15.52L71.05 15.64L71.06 15.65Q68.42 16.41 65.74 16.92L65.78 16.97L65.88 17.06Q61.79 21.65 58.33 31.88L58.41 31.96L58.47 32.02Q55.18 22.95 52.32 19.04L52.39 19.10L52.25 18.96Q52.01 19.00 51.23 18.87L51.19 18.82L51.20 18.84Q50.88 18.38 49.46 16.55L49.62 16.71L49.46 16.55Q46.87 15.97 44.46 14.71L44.46 14.71L44.47 14.72Q50.49 21.15 54.40 32.58L54.36 32.53L54.35 32.52Q55.38 35.72 56.43 38.92L56.51 39.00L56.43 38.92Q56.74 38.96 57.49 38.85L57.60 38.97L57.46 38.82Q57.83 39.51 58.45 40.70L58.37 40.62L58.42 40.67Q59.20 40.64 59.85 40.70L59.82 40.67L59.86 40.72Q60.53 40.74 61.21 40.74Z"/><path d="M12 13 C80 24,75 35,133 19" stroke="#8062d9" fill="none"/><path fill="#e6a792" d="M27.12 20.17L27.26 20.32L27.24 20.30Q25.35 20.27 24.50 20.41L24.56 20.47L24.54 20.45Q23.07 20.65 21.99 21.13L22.10 21.24L22.10 21.24Q18.87 22.43 18.77 26.61L18.79 26.63L18.80 26.64Q18.80 29.09 19.38 31.70L19.26 31.59L19.40 31.72Q20.05 35.20 23.28 36.25L23.34 36.31L23.24 36.21Q25.04 36.82 26.33 36.68L26.40 36.76L26.58 36.53L26.77 36.72Q26.82 36.60 26.99 36.64L27.00 36.64L26.98 36.63Q27.24 36.75 27.38 36.71L27.21 36.55L27.22 36.56Q29.59 36.34 30.81 35.83L30.82 35.84L27.67 32.72L27.72 32.78Q27.97 32.44 28.51 31.90L28.44 31.82L29.32 31.07L29.26 31.02Q30.88 32.84 32.64 34.67L32.72 34.75L32.74 34.77Q34.79 33.12 35.03 28.33L35.08 28.37L34.94 28.23Q35.10 27.51 35.10 26.70L35.13 26.72L35.18 26.78Q35.02 21.55 30.50 20.56L30.57 20.63L30.60 20.66Q29.36 20.30 27.11 20.17ZM38.64 39.99L38.64 39.99L38.47 39.82Q38.05 40.32 37.00 41.10L37.10 41.20L33.00 37.75L33.03 37.78Q30.95 38.99 27.14 39.02L27.10 38.99L26.96 38.84Q21.15 38.98 18.64 36.98L18.72 37.06L18.75 37.09Q17.02 35.36 16.61 32.71L16.73 32.83L16.63 32.73Q16.44 31.11 16.10 27.91L16.23 28.05L16.18 28.00Q16.23 27.41 16.13 25.84L16.09 25.80L16.12 25.83Q15.90 24.35 15.93 23.57L15.90 23.54L15.88 23.52Q16.05 20.86 17.61 19.47L17.72 19.58L17.54 19.40Q19.03 18.34 21.88 17.89L21.80 17.82L21.81 17.82Q24.12 17.58 26.70 17.65L26.69 17.64L26.73 17.67Q33.41 17.76 36.20 19.87L36.04 19.71L36.03 19.70Q37.97 21.61 37.73 25.99L37.80 26.06L37.85 26.11Q37.72 29.42 37.55 30.61L37.48 30.53L37.49 30.55Q36.99 34.63 34.92 36.71L34.75 36.54L34.81 36.60Q36.14 37.72 38.58 39.93ZM34.19 18.21L34.26 18.28L34.21 18.22Q32.50 17.67 26.69 17.23L26.65 17.19L26.61 17.15Q25.50 17.29 23.01 17.39L22.93 17.32L22.94 17.32Q19.21 17.57 17.21 19.34L17.14 19.27L17.12 19.25Q15.70 20.62 15.70 23.44L15.67 23.41L15.72 23.46Q15.63 24.12 15.77 25.65L15.81 25.69L15.88 25.76Q15.88 27.16 15.88 27.94L16.02 28.08L15.90 27.96Q16.00 29.48 16.34 32.68L16.42 32.76L16.42 32.76Q16.65 35.23 18.08 37.07L18.07 37.06L18.10 37.09Q18.44 37.87 19.53 38.89L19.58 38.95L19.49 38.85Q21.95 40.67 26.57 40.91L26.57 40.90L26.66 40.99Q26.86 40.89 29.00 40.99L29.02 41.01L29.04 41.02Q33.35 41.19 35.39 40.24L35.29 40.14L35.30 40.15Q36.21 40.89 40.42 44.08L40.32 43.98L40.30 43.96Q40.86 43.50 42.02 42.62L41.99 42.59L42.00 42.60Q41.23 42.00 40.51 41.39L40.67 41.54L39.16 40.20L39.13 40.04L39.18 40.09Q38.75 39.76 37.66 38.84L37.59 38.77L37.52 38.70Q39.25 36.48 39.25 32.44L39.24 32.43L39.20 32.39Q39.35 32.17 39.38 31.42L39.33 31.36L39.32 31.36Q39.33 30.58 39.33 30.21L39.33 30.21L39.44 30.32Q39.45 25.40 38.80 23.29L38.65 23.14L38.72 23.21Q38.41 22.09 37.63 21.14L37.65 21.15L37.55 21.05Q36.94 19.25 34.32 18.33ZM28.84 22.30L28.97 22.43L28.83 22.29Q32.46 22.22 34.09 23.65L34.22 23.78L34.17 23.73Q34.64 24.77 34.74 25.96L34.67 25.89L34.71 25.93Q34.79 27.07 34.73 28.29L34.74 28.31L34.78 28.35Q34.36 32.65 32.63 34.18L32.77 34.32L32.81 34.36Q31.52 33.08 29.28 30.63L29.28 30.62L29.27 30.61Q28.71 31.42 27.31 32.81L27.30 32.79L27.26 32.76Q27.81 33.33 28.82 34.39L28.79 34.35L28.59 34.25L28.76 34.43Q29.25 34.88 30.17 35.83L30.12 35.78L30.10 35.76Q29.21 36.00 27.14 36.27L27.05 36.19L26.74 36.35L26.27 36.26L26.36 36.37L26.29 36.30Q23.29 36.40 21.52 34.94L21.45 34.86L21.52 34.94Q20.52 32.98 20.55 30.19L20.52 30.16L20.47 30.11Q20.60 22.33 28.80 22.26Z"/><path fill="#eb6aeb" d="M115.50 29.15L115.57 29.22L115.60 29.26Q111.89 29.11 111.38 31.83L111.38 31.83L111.28 31.73Q111.04 32.62 111.21 33.40L111.33 33.52L111.35 33.54Q111.24 34.10 111.64 35.36L111.67 35.39L111.77 35.48Q112.78 38.36 115.74 38.23L115.64 38.13L115.65 38.14Q117.55 38.30 118.74 36.91L118.61 36.79L118.56 36.74Q119.75 35.51 119.75 33.67L119.80 33.72L119.76 33.68Q119.97 33.25 119.83 32.30L119.81 32.27L119.66 32.12Q119.74 31.46 119.37 30.84L119.29 30.77L119.36 30.84Q117.90 29.34 115.59 29.24ZM119.98 45.80L119.85 45.67L119.82 45.64Q118.26 46.23 111.06 46.57L111.06 46.57L111.02 46.52Q109.51 46.58 108.05 45.83L108.18 45.97L108.00 45.79Q108.92 45.10 110.55 43.51L110.53 43.49L110.51 43.47Q112.51 44.24 114.38 44.07L114.56 44.26L114.53 44.22Q117.08 43.95 117.82 43.71L117.73 43.62L117.78 43.67Q119.80 43.07 119.80 41.47L119.90 41.58L119.90 41.57Q119.79 41.26 119.72 41.06L119.84 41.18L119.76 39.77L119.65 39.66Q119.68 39.01 119.68 38.30L119.72 38.33L119.55 38.16Q118.37 40.22 115.35 40.22L115.31 40.18L115.33 40.20Q112.01 40.34 110.55 38.37L110.52 38.35L110.40 38.23Q109.48 36.94 108.77 32.99L108.85 33.07L108.74 32.96Q108.44 31.58 108.44 30.32L108.53 30.41L108.39 30.27Q108.45 28.74 109.27 27.85L109.32 27.90L109.27 27.85Q110.80 26.62 114.94 26.62L114.85 26.53L116.42 26.71L116.44 26.73Q119.29 27.03 120.48 28.77L120.51 28.80L120.55 28.83Q120.76 28.12 121.13 26.66L121.08 26.61L121.08 26.61Q122.66 26.21 124.22 25.57L124.31 25.65L124.31 25.66Q121.90 31.07 121.90 37.53L122.00 37.62L121.96 37.59Q121.91 39.92 122.25 42.26L122.20 42.21L122.23 42.24Q122.50 42.96 122.44 43.57L122.26 43.39L122.32 43.45Q122.29 44.81 121.20 45.49L121.16 45.46L121.01 45.30Q120.62 45.59 119.88 45.70ZM122.63 48.42L122.62 48.41L122.53 48.31Q123.91 48.44 124.59 47.59L124.61 47.61L124.64 47.64Q124.80 46.65 124.70 46.00L124.76 46.06L124.78 46.08Q124.64 45.46 124.47 44.78L124.40 44.72L124.48 44.79Q123.44 40.19 123.75 35.50L123.62 35.37L123.63 35.38Q123.98 30.57 125.89 26.25L125.86 26.22L124.13 27.21L124.13 27.21Q124.33 26.66 124.53 26.15L124.48 26.10L124.86 25.02L124.90 25.06Q122.76 25.87 120.78 26.25L120.91 26.37L120.77 26.24Q120.53 27.05 120.40 27.97L120.45 28.02L120.46 28.03Q118.57 26.31 114.97 26.31L114.98 26.33L113.27 26.18L113.31 26.22Q110.55 26.34 109.05 27.60L108.93 27.48L109.01 27.55Q108.21 28.46 108.25 30.16L108.15 30.06L108.13 30.05Q108.33 32.42 109.25 36.22L109.10 36.07L109.09 36.06Q109.52 37.79 110.61 39.05L110.72 39.16L110.99 39.43L110.98 39.42L110.88 39.32Q111.97 41.47 114.29 41.94L114.26 41.92L114.40 42.06Q115.53 42.20 116.82 42.24L116.77 42.18L116.88 42.29Q118.44 42.32 119.39 41.98L119.29 41.88L119.34 41.93Q118.90 43.43 116.52 43.74L116.47 43.69L116.52 43.73Q115.41 43.71 114.79 43.71L114.79 43.70L114.57 43.83L114.47 43.72Q112.06 43.83 110.56 42.98L110.62 43.03L109.02 44.49L108.96 44.43Q108.32 45.29 107.57 46.14L107.53 46.10L107.52 46.09Q108.29 46.45 109.18 46.62L109.27 46.72L108.58 47.59L108.40 47.41Q110.89 48.44 115.93 48.44L115.98 48.50L116.05 48.36L116.05 48.36Q119.40 48.49 122.60 48.38ZM117.22 31.24L117.30 31.33L117.23 31.26Q118.33 31.13 119.14 31.50L119.17 31.53L119.29 31.65Q119.45 32.09 119.52 32.70L119.47 32.64L119.37 32.55Q119.42 32.83 119.38 33.65L119.43 33.69L119.42 33.68Q119.33 35.36 118.34 36.51L118.36 36.54L118.40 36.58Q117.45 37.94 115.75 37.90L115.58 37.73L115.60 37.75Q114.40 37.78 113.65 37.40L113.57 37.32L113.62 37.36Q113.19 36.26 113.16 35.34L113.25 35.44L113.31 35.49Q113.05 31.46 117.16 31.19Z"/></svg>